<svg aria-hidden="true" style="position: absolute; width: 0; height: 0; overflow: hidden;" version="1.1" xmlns="http://www.w3.org/2000/svg" xmlns:xlink="http://www.w3.org/1999/xlink">
<defs>
<symbol id="icon-calendar" viewBox="0 0 32 32">
<title>calendar</title>
<path d="M28 30h-24c-1.104 0-2-0.896-2-2v-21c0-1.104 0.896-2 2-2h2v1c0 1.657 1.343 3 3 3s3-1.343 3-3v-1h8v1c0 1.657 1.344 3 3 3s3-1.343 3-3v-1h2c1.104 0 2 0.896 2 2v21c0 1.104-0.896 2-2 2zM28 12h-24v16h24v-16zM13.069 19.829c0.197-0.314 0.296-0.646 0.296-0.993 0-0.773-0.416-1.16-1.248-1.16-0.723 0-1.414 0.287-2.074 0.861v-1.629c0.73-0.473 1.555-0.709 2.473-0.709 0.859 0 1.53 0.216 2.013 0.647s0.724 1.015 0.724 1.749c0 0.98-0.588 1.994-1.764 3.041l-1.729 1.535v0.035h3.41v1.535h-5.531v-1.441l2.408-2.303c0.484-0.464 0.825-0.853 1.022-1.168zM19.837 23.166c0.264-0.203 0.396-0.486 0.396-0.85 0-0.375-0.163-0.664-0.489-0.867s-0.774-0.305-1.345-0.305h-0.756v-1.418h0.697c1.094 0 1.641-0.363 1.641-1.090 0-0.684-0.42-1.025-1.26-1.025-0.562 0-1.109 0.182-1.641 0.545v-1.512c0.59-0.297 1.277-0.445 2.062-0.445 0.859 0 1.528 0.193 2.007 0.58s0.718 0.889 0.718 1.506c0 1.098-0.557 1.785-1.67 2.062v0.029c0.594 0.074 1.062 0.29 1.406 0.647s0.516 0.796 0.516 1.315c0 0.785-0.287 1.406-0.861 1.863s-1.367 0.686-2.379 0.686c-0.867 0-1.572-0.141-2.115-0.422v-1.611c0.562 0.41 1.219 0.615 1.969 0.615 0.472 0.002 0.84-0.1 1.104-0.303zM22.969 8c-1.088 0-1.969-0.881-1.969-1.969v-2.062c0-1.088 0.881-1.969 1.969-1.969s1.969 0.881 1.969 1.969v2.062c0 1.088-0.881 1.969-1.969 1.969zM8.969 8c-1.088 0-1.969-0.881-1.969-1.969v-2.062c0-1.088 0.881-1.969 1.969-1.969s1.969 0.881 1.969 1.969v2.062c0 1.088-0.882 1.969-1.969 1.969z"></path>
</symbol>
<symbol id="icon-phone" viewBox="0 0 32 32">
<title>phone</title>
<path d="M21.999 4h-12c-1.104 0-1.999 0.896-1.999 2v20c0 1.104 0.895 2 1.999 2h12c1.105 0 2.001-0.896 2.001-2v-20c0-1.104-0.896-2-2.001-2zM13 5h5l0.062 1h-5.062v-1zM15.979 26.5c-0.552 0-1-0.447-1-1s0.448-1 1-1c0.553 0 1 0.447 1 1s-0.448 1-1 1zM21.999 23h-12l0.021-16h11.979v16z"></path>
</symbol>
<symbol id="icon-monitor" viewBox="0 0 32 32">
<title>monitor</title>
<path d="M17 24.938h-3v1.562l-3 0.5v1h8.938v-0.938l-2.938-0.562v-1.562zM27 4h-23c-1.105 0-2 0.895-2 2v14c0 1.104 0.895 2 2 2h23c1.105 0 2-0.896 2-2v-14c0-1.105-0.895-2-2-2zM15.375 20.5c-0.552 0-1-0.448-1-1 0-0.553 0.448-1 1-1 0.553 0 1 0.447 1 1 0 0.552-0.448 1-1 1zM27 17h-23v-11h23v11z"></path>
</symbol>
<symbol id="icon-coffee" viewBox="0 0 32 32">
<title>coffee</title>
<path d="M29.984 15.548c-0.378-3.639-4.063-3.618-5.977-3.553 0.009-0.553 0.015-0.999 0.015-0.999l-22.027-0.007c0 0 0 3.014 0 3.089 0 4.281 2.445 7.984 6.011 9.809v1.068h10.019v-1.068c1-0.512 1.897-1.184 2.691-1.961 4.915-1.176 10.070-2.873 9.268-6.378zM22.25 20.066c1.123-1.725 1.786-3.775 1.786-5.988 0 0.017 0.001-0.029 0.002-0.116 1.785-0.059 3.755-0.237 4.201 1.54 0.448 1.955-2.817 3.547-5.989 4.564zM8.83 6.99c0 1-1.64 2.065-1.64 2.065s3.214-0.574 3.214-2.074-3.187-0.5-3.187-1.625 1.577-2.19 1.577-2.19-3.025 0.637-3.025 2.199 3.061 0.625 3.061 1.625zM13.83 7.99c0 1-1.64 2.065-1.64 2.065s3.214-0.574 3.214-2.074-3.187-0.5-3.187-1.625 1.577-2.19 1.577-2.19-3.026 0.637-3.026 2.199 3.062 0.625 3.062 1.625zM17.83 6.99c0 1-1.64 2.065-1.64 2.065s3.214-0.574 3.214-2.074-3.187-0.5-3.187-1.625 1.577-2.19 1.577-2.19-3.026 0.637-3.026 2.199 3.062 0.625 3.062 1.625zM1.933 25.928c0 1.381 4.925 2.5 11 2.5s11-1.119 11-2.5c0 0.029-22 0.029-22 0z"></path>
</symbol>
<symbol id="icon-mug" viewBox="0 0 32 32">
<title>mug</title>
<path d="M25.761 25.005h-2.724v2.164c0 1.546-1.378 2.798-2.924 2.798h-10.308c-1.546 0-2.799-1.252-2.799-2.798v-15.1h2.998v14.905h1.988l0.002-14.905c0.534 0.385 1.334 0.671 2.008 0.823v14.083h1.988v-14.025c0.745-0.123 1.428-0.403 2.016-0.807v14.832h1.988v-14.906h5.766c1.236 0 2.239 1.002 2.239 2.239v8.457c0.001 1.237-1.002 2.24-2.238 2.24zM25.991 14.010h-2.955v8.985h2.955v-8.985zM21.222 11.142c-0.979 0-1.863-0.391-2.517-1.021-0.812 1.147-2.142 1.902-3.653 1.902-1.457 0-2.738-0.707-3.557-1.784-0.648 0.599-1.508 0.973-2.46 0.973-1.755 0-3.219-1.243-3.562-2.896-0.534-0.35-0.887-0.952-0.887-1.637 0-1.082 0.877-1.959 1.959-1.959 0.080 0 0.157 0.014 0.234 0.023 0.605-0.481 1.359-0.785 2.189-0.801 0.373-1.106 1.408-1.909 2.641-1.909 0.949 0 1.784 0.475 2.291 1.197 0.368-0.1 0.751-0.162 1.151-0.162 0.418 0 0.816 0.070 1.199 0.179 0.505-0.732 1.348-1.214 2.304-1.214 1.207 0 2.226 0.768 2.619 1.838 0.017 0 0.031-0.005 0.048-0.005 2.010 0 3.639 1.629 3.639 3.638s-1.629 3.638-3.638 3.638z"></path>
</symbol>
<symbol id="icon-warning" viewBox="0 0 32 32">
<title>warning</title>
<path d="M30.555 25.219l-12.519-21.436c-1.044-1.044-2.738-1.044-3.782 0l-12.52 21.436c-1.044 1.043-1.044 2.736 0 3.781h28.82c1.046-1.045 1.046-2.738 0.001-3.781zM14.992 11.478c0-0.829 0.672-1.5 1.5-1.5s1.5 0.671 1.5 1.5v7c0 0.828-0.672 1.5-1.5 1.5s-1.5-0.672-1.5-1.5v-7zM16.501 24.986c-0.828 0-1.5-0.67-1.5-1.5 0-0.828 0.672-1.5 1.5-1.5s1.5 0.672 1.5 1.5c0 0.83-0.672 1.5-1.5 1.5z"></path>
</symbol>
<symbol id="icon-chronometer" viewBox="0 0 32 32">
<title>chronometer</title>
<path d="M28.054 18.571c0 6.933-5.62 12.554-12.554 12.554s-12.554-5.621-12.554-12.554c0-6.722 5.286-12.192 11.927-12.521v-2.166h-0.941c-0.555 0-1.005-0.45-1.005-1.005s0.45-1.004 1.005-1.004h3.012c0.555 0 1.005 0.449 1.005 1.004s-0.45 1.005-1.005 1.005h-1.066v2.153c6.757 0.2 12.176 5.729 12.176 12.534zM14.873 9.909v-2.291c-3.109 0.176-5.866 1.64-7.766 3.858l1.653 1.653-0.71 0.711-1.565-1.566c-1.274 1.798-2.032 3.987-2.032 6.359 0 0.106 0.015 0.251 0.015 0.251h2.432v1.005h-2.36c0.244 2.052 1.057 3.987 2.268 5.534l1.243-1.243 0.71 0.71-1.296 1.297c1.879 1.996 4.488 3.297 7.408 3.462v-2.729h1.004v2.742c2.989-0.102 5.67-1.393 7.599-3.41l-1.424-1.424 0.71-0.71 1.377 1.376c1.24-1.56 2.074-3.521 2.322-5.604h-2.55v-1.005h2.621c0.003-0.104 0.016-0.145 0.016-0.251 0-2.438-0.8-4.681-2.138-6.505l-1.648 1.648-0.71-0.71 1.726-1.725c-1.947-2.203-4.753-3.631-7.9-3.737v2.304h-1.005zM15.939 18.885h3.516c0.277 0 0.502 0.226 0.502 0.502 0 0.277-0.225 0.503-0.502 0.503h-4.018c-0.277 0-0.502-0.226-0.502-0.503v-6.967c0-0.277 0.225-0.502 0.502-0.502s0.502 0.225 0.502 0.502v6.465z"></path>
</symbol>
<symbol id="icon-checkmark" viewBox="0 0 32 32">
<title>checkmark</title>
<path d="M28.998 8.531l-2.134-2.134c-0.394-0.393-1.030-0.393-1.423 0l-12.795 12.795-6.086-6.13c-0.393-0.393-1.029-0.393-1.423 0l-2.134 2.134c-0.393 0.394-0.393 1.030 0 1.423l8.924 8.984c0.393 0.393 1.030 0.393 1.423 0l15.648-15.649c0.393-0.392 0.393-1.030 0-1.423z"></path>
</symbol>
<symbol id="icon-cancel" viewBox="0 0 32 32">
<title>cancel</title>
<path d="M19.587 16.001l6.096 6.096c0.396 0.396 0.396 1.039 0 1.435l-2.151 2.151c-0.396 0.396-1.038 0.396-1.435 0l-6.097-6.096-6.097 6.096c-0.396 0.396-1.038 0.396-1.434 0l-2.152-2.151c-0.396-0.396-0.396-1.038 0-1.435l6.097-6.096-6.097-6.097c-0.396-0.396-0.396-1.039 0-1.435l2.153-2.151c0.396-0.396 1.038-0.396 1.434 0l6.096 6.097 6.097-6.097c0.396-0.396 1.038-0.396 1.435 0l2.151 2.152c0.396 0.396 0.396 1.038 0 1.435l-6.096 6.096z"></path>
</symbol>
<symbol id="icon-location" viewBox="0 0 32 32">
<title>location</title>
<path d="M11.163 11.554c0-2.655 2.166-4.807 4.837-4.807s4.837 2.152 4.837 4.807-2.166 4.806-4.837 4.806-4.837-2.152-4.837-4.806zM7.777 12.154c0 2.011 2.454 6.25 2.454 6.25l5.769 9.614 5.438-9.613c0 0 2.785-4.27 2.785-6.25 0-4.513-3.682-8.171-8.223-8.171s-8.223 3.657-8.223 8.17z"></path>
</symbol>
<symbol id="icon-alarm" viewBox="0 0 32 32">
<title>alarm</title>
<path d="M27.013 25.278v1.825h-22.026v-1.825c0 0-0.471-1.009 2.085-3.429 2.554-2.419 2.218-8.672 2.218-12.907s5.948-4.325 5.948-4.325h0.204c0 0.002 0-0.029 0-0.688 0-0.423-1.42-1.955-1.42-1.955l-0.021-0.927h4.010l-0.027 0.962c0 0-1.539 1.531-1.539 1.982 0 0.436 0 0.582 0 0.625h0.317c0 0 5.948 0.090 5.948 4.325s-0.336 10.489 2.219 12.909 2.084 3.428 2.084 3.428zM18.512 28.070c0 1.385-1.122 2.883-2.506 2.883s-2.506-1.498-2.506-2.883c0 0.031 5.012-0.032 5.012 0z"></path>
</symbol>
<symbol id="icon-phone2" viewBox="0 0 32 32">
<title>phone2</title>
<path d="M15.331 19.76c-0.026-0.018-3.034-5.075-3.044-5.14-0.622-1.359-1.124-2.749-0.078-3.366l-4.341-7.32c-1.125 0.841-4.307 5.405 1.649 15.748 6.274 10.9 12.245 10.447 13.442 9.709l-4.23-7.145c-1 0.588-1.842-0.381-3.398-2.486zM25.862 26.617l0.001-0.006c0 0-3.303-5.566-3.305-5.568-0.262-0.441-0.825-0.58-1.264-0.324l-2.024 1.197 4.242 7.166c0 0 2.024-1.191 2.023-1.195h0.004c0.465-0.276 0.572-0.846 0.323-1.27zM14.786 9.736v-0.004c0.465-0.275 0.574-0.845 0.325-1.265l0.002-0.006c0 0-3.398-5.729-3.4-5.73-0.261-0.443-0.826-0.58-1.263-0.324l-2.024 1.197 4.336 7.324c0 0 2.023-1.189 2.024-1.192z"></path>
</symbol>
<symbol id="icon-open" viewBox="0 0 32 32">
<title>open</title>
<path d="M28 31h-24c-1.657 0-3-1.344-3-3v-14c0-1.657 1.343-3 3-3h24c1.656 0 3 1.343 3 3v14c0 1.656-1.344 3-3 3zM8 18.041c-1.657 0-3 1.567-3 3.5 0 1.934 1.343 3.5 3 3.5s3-1.566 3-3.5c0-1.933-1.344-3.5-3-3.5zM15.78 18.898c-0.115-0.237-0.269-0.422-0.458-0.553-0.19-0.132-0.426-0.221-0.707-0.268-0.2-0.037-0.49-0.055-0.87-0.055h-1.783v6.914h1.008v-2.016h0.842c0.81 0 1.368-0.356 1.679-0.693 0.309-0.338 0.464-1.812 0.464-2.299-0.001-0.282-0.059-0.793-0.175-1.030zM21.024 23.945h-3.058v-2.008h2.956v-0.93h-2.956v-2.055h3.050v-0.93h-3.995v6.914h4.003v-0.991zM26.954 18.023h-0.914v5.31l-3.012-5.31h-1.027v6.914h0.977v-5.061l3.012 5.061h0.965v-6.914zM13.823 21.93h-0.853v-2.977h0.838c0.343 0 0.578 0.017 0.706 0.051 0.197 0.055 0.357 0.166 0.478 0.336s0.182 0.375 0.182 0.613c0 0.33-0.103 1.522-0.309 1.704s-0.553 0.273-1.042 0.273zM8 24.125c-1.104 0-2-1.119-2-2.5s0.896-2.5 2-2.5 2 1.119 2 2.5-0.896 2.5-2 2.5zM25 11l-7.322-5.45c-0.344 0.277-0.775 0.45-1.25 0.45-0.662 0-1.244-0.325-1.607-0.821l-7.821 5.821h-1l8.493-6.518c-0.038-0.155-0.065-0.315-0.065-0.482 0-1.104 0.896-2 2-2 1.105 0 2 0.896 2 2 0 0.359-0.103 0.692-0.269 0.984l7.841 6.016h-1z"></path>
</symbol>
<symbol id="icon-graduate" viewBox="0 0 42 32">
<title>graduate</title>
<path d="M32.639 17.561c0 0-4.592-4.682-10.92-4.682-6.183 0-12.295 4.682-12.295 4.682l-3.433-1.433v4.204c0.541 0.184 0.937 0.682 0.937 1.285 0 0.609-0.404 1.108-0.953 1.288l1.015 2.831h-2.996l1.024-2.855c-0.492-0.209-0.836-0.695-0.836-1.264 0-0.557 0.334-1.031 0.811-1.247v-4.659l-4.993-2.082 21.969-9.861 20.156 9.985-9.486 3.808zM21.469 15.251c6.366 0 9.486 3.37 9.486 3.37v6.99c0 0-3.245 2.621-9.985 2.621s-8.987-2.621-8.987-2.621v-6.99c0 0 3.12-3.37 9.486-3.37zM21.344 26.734c4.412 0 7.989-0.895 7.989-1.997s-3.577-1.997-7.989-1.997-7.988 0.895-7.988 1.997 3.576 1.997 7.988 1.997z"></path>
</symbol>
<symbol id="icon-mouse" viewBox="0 0 32 32">
<title>mouse</title>
<path d="M22.956 30.972h-4.984c-3.304 0-5.981-2.678-5.981-5.981v-8.972h6.044v1.994c0 1.101 0.83 1.993 1.932 1.993h0.996c1.102 0 1.994-0.893 1.994-1.993v-1.994h6.043v8.972c0 3.303-2.741 5.981-6.044 5.981zM22.956 14.025c0-1.101-0.893-1.994-1.994-1.994v0-5.919c0 0-1.308-0.062 1.932-0.062s6.106 2.118 6.106 5.981c0 1.983 0 2.698 0 2.928h-6.044v-0.934zM20.038 5.375c0-1.927-0.907-3-2.723-3-1.921 0-3.391 1.384-4.409 4.151l-0.209 0.567c-1.191 3.235-2.937 4.853-5.235 4.853-0.928 0-1.794-0.354-2.599-1.060s-1.207-1.466-1.207-2.279c0-0.402 0.188-0.604 0.566-0.604 0.255 0 0.518 0.321 0.789 0.962 0.492 1.184 1.314 1.776 2.464 1.776 0.871 0 1.583-0.281 2.138-0.845s1.186-1.646 1.892-3.249l0.456-1.011c1.339-2.992 3.143-4.488 5.409-4.488 2.597 0 3.895 1.482 3.895 4.227h-1.227zM21.959 14.523v2.99c0 0.826-0.669 1.495-1.495 1.495s-1.495-0.669-1.495-1.495v-2.99c0-0.826 0.669-1.496 1.495-1.496s1.495 0.67 1.495 1.496zM18.034 6.050c3.239 0 1.993 0.062 1.993 0.062v5.919c-1.101 0-1.993 0.893-1.993 1.994v0.935h-6.044c0-0.23 0-0.945 0-2.928 0-3.864 2.804-5.982 6.044-5.982z"></path>
</symbol>
<symbol id="icon-smiley" viewBox="0 0 32 32">
<title>smiley</title>
<path d="M16 4c-6.628 0-12 5.373-12 12s5.372 12 12 12c6.627 0 12-5.373 12-12s-5.373-12-12-12zM20 9.812c0.828 0 1.5 0.896 1.5 2s-0.672 2-1.5 2-1.5-0.896-1.5-2 0.672-2 1.5-2zM11.925 9.825c0.828 0 1.5 0.896 1.5 2s-0.672 2-1.5 2-1.5-0.896-1.5-2 0.672-2 1.5-2zM15.875 23.312c-4.105 0-6.857-2.687-7.352-7.156h0.969c0.785 3.458 2.91 5.188 6.375 5.188s5.59-1.729 6.375-5.188h1c-0.494 4.47-3.262 7.156-7.367 7.156z"></path>
</symbol>
<symbol id="icon-cord" viewBox="0 0 32 32">
<title>cord</title>
<path d="M26.917 18.518l-13.435-13.435c-0.586-0.586-0.586-1.536 0-2.121s1.535-0.586 2.121 0l3.182 3.182 3.89-3.889c0.586-0.586 1.535-0.586 2.121 0s0.586 1.535 0 2.121l-3.889 3.889 2.828 2.828 3.889-3.889c0.586-0.586 1.536-0.586 2.122 0s0.585 1.535 0 2.121l-3.89 3.89 3.183 3.182c0.585 0.586 0.585 1.535 0 2.121s-1.536 0.586-2.122 0zM20.907 23.821c-1.297 1.296-7.071 1.414-7.071 1.414l-7.071-7.071c0 0 0.118-5.774 1.414-7.071 1.297-1.296 4.95-4.949 4.95-4.949l12.728 12.728c-0.001-0.001-3.654 3.652-4.95 4.949zM6.765 19.578l5.657 5.657c0.391 0.391 0.391 1.023 0 1.414s-1.024 0.391-1.415 0l-5.656-5.657c-0.391-0.391-0.391-1.023 0-1.414s1.023-0.39 1.414 0zM9.593 26.649c0 0-0.475 0.476-1.061 1.061s-1.535 0.586-2.121 0l-0.354-0.354-2.829 2.828-1.414-1.414 2.829-2.828-0.353-0.353c-0.586-0.586-0.586-1.536 0-2.122s1.119-1.001 1.119-1.001l4.184 4.183z"></path>
</symbol>
<symbol id="icon-lamp" viewBox="0 0 32 32">
<title>lamp</title>
<path d="M17.747 14.017c-1.25 0.562-4.022-0.815-4.022-0.815-3.248-1.947 1.22 6.073 1.22 6.073s0.093 2.503 0.655 2.815c4.687-6.563 3.397-8.636 2.147-8.073zM16.060 20.24c-0.379 0-1.972-4.779-1.784-5.779 1.251 0.125 2.409 0.597 3.097 0.222 1.937-0.878-0.876 5.557-1.313 5.557zM19.952 23.947c0.115-7.305 4.046-10.116 4.046-14.466 0-3.712-2.54-8.45-7.87-8.45-5.329 0-8.126 4.533-8.126 8.484 0 4.436 3.993 7.224 3.993 14.478h4.043c0 0 3.798-0.046 3.914-0.046zM12.809 23.020c0-6.771-3.868-9.373-3.868-13.513 0-3.688 2.51-7.556 7.173-7.556s6.948 4.060 6.948 7.524c0 4.060-3.814 6.742-3.916 13.56-0.102 0-3.111-0.016-3.111-0.016h-3.226zM19.505 25.014h-7c-0.276 0-0.5 0.224-0.5 0.5s0.224 0.5 0.5 0.5h7c0.275 0 0.5-0.224 0.5-0.5s-0.225-0.5-0.5-0.5zM19.505 27.014h-7c-0.276 0-0.5 0.224-0.5 0.5s0.224 0.5 0.5 0.5h7c0.275 0 0.5-0.224 0.5-0.5s-0.225-0.5-0.5-0.5zM12.997 29.043c0 0 0 0.334 0 0.9s0.444 1.025 0.992 1.025h4.031c0.549 0 0.992-0.459 0.992-1.025s-0.062-0.9-0.062-0.9h-5.953z"></path>
</symbol>
<symbol id="icon-chat" viewBox="0 0 32 32">
<title>chat</title>
<path d="M25.042 18.672v-12.487c0-1.234-1-2.236-2.236-2.236h-19.571c-1.235-0.001-2.236 1.001-2.236 2.236v12.487c0 1.235 1.001 2.236 2.236 2.236h3.729v5.137l5.704-5.137h10.137c1.237 0 2.237-1.001 2.237-2.236zM28.765 8.858h-2.798c0 0 0 9.972 0 10.909s-1.216 2.142-2.153 2.142-10.945 0.055-10.945 0.055c0 1.235 1.001 1.986 2.236 1.986h4.309l5.622 5.102-0.007-5.102h3.736c1.236 0 2.236-0.751 2.236-1.986v-10.932c0-1.234-1-2.174-2.236-2.174z"></path>
</symbol>
<symbol id="icon-calculator" viewBox="0 0 32 32">
<title>calculator</title>
<path d="M24 5h-16c-0.553 0-1 0.447-1 1v21c0 0.552 0.447 1 1 1h16c0.552 0 1-0.448 1-1v-21c0-0.553-0.448-1-1-1zM9 15h2v2h-2v-2zM9 18h2v2h-2v-2zM9 21h2v2h-2v-2zM14 26h-5v-2h5v2zM14 23h-2v-2h2v2zM14 20h-2v-2h2v2zM14 17h-2v-2h2v2zM17 26h-2v-2h2v2zM17 23h-2v-2h2v2zM17 20h-2v-2h2v2zM17 17h-2v-2h2v2zM20 26h-2v-2h2v2zM20 23h-2v-2h2v2zM20 20h-2v-2h2v2zM20 17h-2v-2h2v2zM23 26h-2v-5h2v5zM23 20h-2v-2h2v2zM23 17h-2v-2h2v2zM23 13h-14v-6h14v6z"></path>
</symbol>
<symbol id="icon-pencil" viewBox="0 0 32 32">
<title>pencil</title>
<path d="M5.582 20.054l14.886-14.886 6.369 6.369-14.886 14.886-6.369-6.369zM21.153 8.758l-0.698-0.697-11.981 11.98 0.698 0.698 11.981-11.981zM22.549 10.154l-0.698-0.698-11.981 11.982 0.697 0.697 11.982-11.981zM23.945 11.55l-0.698-0.698-11.981 11.981 0.698 0.698 11.981-11.981zM23.319 2.356c0.781-0.783 2.045-0.788 2.82-0.013l3.512 3.512c0.775 0.775 0.77 2.038-0.012 2.82l-2.17 2.17-6.32-6.32 2.17-2.169zM5.092 20.883l6.030 6.030-5.284 1.877-2.623-2.623 1.877-5.284zM4.837 29.117l-3.066 1.117 1.117-3.066 1.949 1.949z"></path>
</symbol>
<symbol id="icon-dollar" viewBox="0 0 38 32">
<title>dollar</title>
<path d="M36.002 23.010l0.057-17.089-31.050 0.019-0.001-1.96h32.992v19.031l-1.998-0.001zM34.995 26.017l-1.997-0.002 0.057-17.089-31.050 0.020-0.001-1.96h32.992v19.031zM32.053 28.020h-32.053v-18.030h32.053v18.030zM30.049 11.931h-28.046v14.086h28.045v-14.086zM27.045 24.515c0 0.177 0.044 0.342 0.101 0.5h-11.12c2.766 0 5.009-2.69 5.009-6.010s-2.243-6.010-5.009-6.010h11.119c-0.057 0.158-0.101 0.323-0.101 0.501 0 0.83 0.672 1.502 1.502 1.502 0.178 0 0.343-0.044 0.501-0.101v8.215c-0.158-0.056-0.323-0.101-0.501-0.101-0.829 0.001-1.501 0.674-1.501 1.504zM25.041 16.919c-0.83 0-1.502 0.896-1.502 2.003s0.672 2.003 1.502 2.003 1.502-0.896 1.502-2.003-0.672-2.003-1.502-2.003zM18.123 15.394c0.015 0.029 0.027 0.068 0.037 0.116 0.011 0.048 0.018 0.109 0.021 0.182 0.005 0.073 0.007 0.164 0.007 0.273 0 0.121-0.003 0.224-0.009 0.307-0.007 0.084-0.018 0.153-0.031 0.207-0.016 0.055-0.036 0.095-0.062 0.119-0.027 0.025-0.064 0.038-0.11 0.038s-0.118-0.029-0.219-0.087c-0.101-0.059-0.224-0.121-0.369-0.189s-0.315-0.131-0.507-0.187-0.402-0.084-0.632-0.084c-0.18 0-0.336 0.021-0.469 0.065-0.134 0.044-0.246 0.104-0.335 0.181s-0.157 0.17-0.2 0.277c-0.044 0.108-0.066 0.223-0.066 0.343 0 0.18 0.049 0.335 0.147 0.467s0.229 0.248 0.395 0.35c0.165 0.103 0.352 0.198 0.56 0.288s0.421 0.185 0.638 0.284c0.217 0.101 0.43 0.214 0.639 0.342 0.209 0.127 0.395 0.279 0.557 0.456 0.163 0.178 0.295 0.386 0.395 0.626s0.15 0.522 0.15 0.848c0 0.425-0.080 0.799-0.238 1.119-0.158 0.321-0.373 0.59-0.645 0.805s-0.588 0.376-0.951 0.484c-0.046 0.014-0.096 0.020-0.143 0.031v1.094h-0.985v-0.965c-0.013 0-0.024 0.003-0.037 0.003-0.279 0-0.539-0.023-0.779-0.068s-0.452-0.101-0.635-0.164c-0.184-0.064-0.337-0.132-0.46-0.202s-0.212-0.132-0.266-0.186-0.093-0.132-0.116-0.234-0.035-0.25-0.035-0.442c0-0.129 0.004-0.238 0.013-0.325 0.008-0.088 0.022-0.159 0.041-0.214 0.019-0.054 0.044-0.093 0.075-0.116 0.031-0.022 0.068-0.034 0.109-0.034 0.059 0 0.141 0.034 0.248 0.104 0.106 0.068 0.243 0.145 0.41 0.228s0.366 0.159 0.598 0.228c0.231 0.069 0.5 0.104 0.804 0.104 0.2 0 0.38-0.024 0.538-0.072s0.293-0.116 0.404-0.203c0.11-0.088 0.194-0.197 0.253-0.326s0.088-0.274 0.088-0.433c0-0.184-0.051-0.342-0.15-0.473-0.1-0.132-0.23-0.248-0.391-0.351s-0.343-0.198-0.547-0.287c-0.205-0.090-0.415-0.185-0.632-0.285s-0.428-0.214-0.632-0.341c-0.204-0.127-0.387-0.279-0.547-0.457-0.16-0.177-0.291-0.387-0.391-0.628-0.1-0.242-0.15-0.532-0.15-0.87 0-0.388 0.072-0.729 0.216-1.022 0.144-0.294 0.338-0.538 0.582-0.732s0.532-0.339 0.863-0.435c0.17-0.049 0.346-0.085 0.527-0.109v-1.035h0.985v1.035c0.039 0.005 0.078 0.003 0.117 0.009 0.192 0.029 0.372 0.068 0.539 0.118 0.166 0.050 0.314 0.105 0.443 0.168s0.215 0.113 0.258 0.155c0.039 0.037 0.067 0.072 0.082 0.102zM11.018 19.005c0 3.319 2.242 6.010 5.008 6.010h-11.119c0.056-0.158 0.101-0.323 0.101-0.5 0-0.83-0.673-1.503-1.502-1.503-0.178 0-0.343 0.045-0.501 0.101v-8.215c0.158 0.057 0.323 0.101 0.501 0.101 0.83 0 1.502-0.672 1.502-1.502 0-0.178-0.045-0.343-0.101-0.501h11.119c-2.766-0.001-5.008 2.69-5.008 6.009zM7.011 16.919c-0.83 0-1.502 0.896-1.502 2.003s0.673 2.003 1.502 2.003c0.83 0 1.502-0.896 1.502-2.003s-0.672-2.003-1.502-2.003z"></path>
</symbol>
<symbol id="icon-pig" viewBox="0 0 32 32">
<title>pig</title>
<path d="M24.674 21.909c0 0 3.33-2.278 3.33-6.771 0-6.688-7.088-9.161-10.899-9.095-3.812 0.067-4.948 1.070-4.948 1.070s-1.297-0.943-2.672-1.733c-1.052-0.41-1.296-0.469-2.027-0.234-0.585 0-0.217 0.974 0.018 1.325 0.233 0.351 1.366 2.29 1.366 2.29s-2.378 2.449-2.554 4.059c0-0.029-1.12-0.009-1.734-0.009s-0.556 0.669-0.556 0.669l0.017 4.714c0 0-0.038 0.669 0.519 0.669 0.556 0 1.738 0.013 1.738 0.013s1.663 2.415 2.717 2.854c0 0.029-0.911 2.503-0.911 2.503s-0.439 0.761 0.351 1.054c0.79 0.292 2.851 1.157 3.729 1.421s1.003-0.334 1.003-0.334l0.869-1.877 5.685 0.009 0.869 1.935c0 0 0.167 0.898 1.337 0.401 1.171-0.497 2.449-1.087 3.415-1.584 0.965-0.497 0.33-1.426 0.33-1.426l-0.992-1.923zM9.322 13.764c-0.533 0-0.965-0.433-0.965-0.966s0.432-0.965 0.965-0.965 0.966 0.432 0.966 0.965-0.433 0.966-0.966 0.966zM22.925 10.756c-0.308 0.365-0.509 0.096-0.757 0.023 0 0-1.051-0.975-2.595-1.43-1.599-0.47-3.282-0.243-3.282-0.243-0.248-0.073-0.549-0.081-0.551-0.464 0.013-0.473 0.587-0.477 0.58-0.493 0 0 1.894-0.175 3.479 0.291 1.559 0.458 2.75 1.454 2.75 1.454s0.637 0.439 0.376 0.862z"></path>
</symbol>
<symbol id="icon-envelope" viewBox="0 0 32 32">
<title>envelope</title>
<path d="M16.015 18.861l-4.072-3.343-8.862 10.463h25.876l-8.863-10.567-4.079 3.447zM29.926 6.019h-27.815l13.908 11.698 13.907-11.698zM20.705 14.887l9.291 11.084v-18.952l-9.291 7.868zM2.004 7.019v18.952l9.291-11.084-9.291-7.868z"></path>
</symbol>
<symbol id="icon-heart" viewBox="0 0 32 32">
<title>heart</title>
<path d="M16.042 8.345c0 0-2-4.262-6.5-4.262-4.917 0-7.5 4.167-7.5 8.333 0 6.917 14 15.5 14 15.5s13.916-8.5 13.916-15.5c0-4.25-2.666-8.333-7.416-8.333s-6.5 4.262-6.5 4.262z"></path>
</symbol>
<symbol id="icon-info" viewBox="0 0 32 32">
<title>info</title>
<path d="M16 3c-7.18 0-13 5.82-13 13s5.82 13 13 13 13-5.82 13-13-5.82-13-13-13zM18.039 20.783c-0.981 1.473-1.979 2.608-3.658 2.608-1.146-0.187-1.617-1.008-1.369-1.845l2.16-7.154c0.053-0.175-0.035-0.362-0.195-0.419-0.159-0.056-0.471 0.151-0.741 0.447l-1.306 1.571c-0.035-0.264-0.004-0.7-0.004-0.876 0.981-1.473 2.593-2.635 3.686-2.635 1.039 0.106 1.531 0.937 1.35 1.85l-2.175 7.189c-0.029 0.162 0.057 0.327 0.204 0.379 0.16 0.056 0.496-0.151 0.767-0.447l1.305-1.57c0.035 0.264-0.024 0.726-0.024 0.902zM17.748 11.439c-0.826 0-1.496-0.602-1.496-1.488s0.67-1.487 1.496-1.487 1.496 0.602 1.496 1.487c0 0.887-0.67 1.488-1.496 1.488z"></path>
</symbol>
<symbol id="icon-rocket" viewBox="0 0 32 32">
<title>rocket</title>
<path d="M23.371 29.529c0 0 0.335-2.012-1.731-4.469 2.011-5.641 2.29-10.778 2.29-10.778s4.133 0.95 4.133 5.026c-0.001 6.981-4.692 10.221-4.692 10.221zM11.979 27.078c0 0-2.768-8.883-2.768-12.568 0-1.658 0.187-3.133 0.478-4.472h12.61c0.293 1.34 0.481 2.816 0.481 4.473 0 3.629-2.76 12.567-2.76 12.567h-8.041zM15.99 12.069c-1.418 0-2.568 1.15-2.568 2.569 0 1.418 1.15 2.569 2.568 2.569s2.569-1.15 2.569-2.569c0.001-1.419-1.15-2.569-2.569-2.569zM15.438 0.596v-3.498h1v3.409c1.143 0.832 4.236 3.478 5.635 8.575h-12.16c1.352-4.957 4.296-7.574 5.525-8.486zM8.629 29.529c0 0-4.691-3.24-4.691-10.221 0-4.076 4.133-5.026 4.133-5.026s0.279 5.137 2.289 10.778c-2.067 2.458-1.731 4.469-1.731 4.469zM17.691 30.045l-0.838-0.838-0.893 2.793-1.062-2.793-0.726 1.451-1.062-2.625h5.752l-1.171 2.012z"></path>
</symbol>
<symbol id="icon-book" viewBox="0 0 32 32">
<title>book</title>
<path d="M15 25.875v-19.625c0 0-2.688-2.25-6.5-2.25s-6.5 2-6.5 2v19.875c0 0 2.688-1.938 6.5-1.938s6.5 1.938 6.5 1.938zM29 25.875v-19.625c0 0-2.688-2.25-6.5-2.25s-6.5 2-6.5 2v19.875c0 0 2.688-1.938 6.5-1.938s6.5 1.938 6.5 1.938zM31 8h-1v19h-12v1h-5v-1h-12v-19h-1v20h12v1h7.062l-0.062-1h12v-20z"></path>
</symbol>
<symbol id="icon-home3" viewBox="0 0 32 32">
<title>home3</title>
<path d="M32 19l-6-6v-9h-4v5l-6-6-16 16v1h4v10h10v-6h4v6h10v-10h4z"></path>
</symbol>
<symbol id="icon-play" viewBox="0 0 32 32">
<title>play</title>
<path d="M30.662 5.003c-4.488-0.645-9.448-1.003-14.662-1.003s-10.174 0.358-14.662 1.003c-0.86 3.366-1.338 7.086-1.338 10.997s0.477 7.63 1.338 10.997c4.489 0.645 9.448 1.003 14.662 1.003s10.174-0.358 14.662-1.003c0.86-3.366 1.338-7.086 1.338-10.997s-0.477-7.63-1.338-10.997zM12 22v-12l10 6-10 6z"></path>
</symbol>
<symbol id="icon-earth" viewBox="0 0 32 32">
<title>earth</title>
<path d="M16 0c-8.837 0-16 7.163-16 16s7.163 16 16 16 16-7.163 16-16-7.163-16-16-16zM16 30c-1.967 0-3.84-0.407-5.538-1.139l7.286-8.197c0.163-0.183 0.253-0.419 0.253-0.664v-3c0-0.552-0.448-1-1-1-3.531 0-7.256-3.671-7.293-3.707-0.188-0.188-0.442-0.293-0.707-0.293h-4c-0.552 0-1 0.448-1 1v6c0 0.379 0.214 0.725 0.553 0.894l3.447 1.724v5.871c-3.627-2.53-6-6.732-6-11.489 0-2.147 0.484-4.181 1.348-6h3.652c0.265 0 0.52-0.105 0.707-0.293l4-4c0.188-0.188 0.293-0.442 0.293-0.707v-2.419c1.268-0.377 2.61-0.581 4-0.581 2.2 0 4.281 0.508 6.134 1.412-0.13 0.109-0.256 0.224-0.376 0.345-1.133 1.133-1.757 2.64-1.757 4.243s0.624 3.109 1.757 4.243c1.139 1.139 2.663 1.758 4.239 1.758 0.099 0 0.198-0.002 0.297-0.007 0.432 1.619 1.211 5.833-0.263 11.635-0.014 0.055-0.022 0.109-0.026 0.163-2.541 2.596-6.084 4.208-10.004 4.208z"></path>
</symbol>
<symbol id="icon-grin" viewBox="0 0 32 32">
<title>grin</title>
<path d="M16 32c8.837 0 16-7.163 16-16s-7.163-16-16-16-16 7.163-16 16 7.163 16 16 16zM16 3c7.18 0 13 5.82 13 13s-5.82 13-13 13-13-5.82-13-13 5.82-13 13-13zM6 16v2c0 4.4 3.6 8 8 8h4c4.4 0 8-3.6 8-8v-2h-20zM12 23.656c-0.829-0.296-1.591-0.776-2.236-1.42-1.138-1.138-1.764-2.642-1.764-4.236h4v5.656zM18 24h-4v-6h4v6zM22.236 22.236c-0.645 0.645-1.407 1.125-2.236 1.42v-5.656h4c0 1.594-0.627 3.098-1.764 4.236zM7.042 12c0 0 0 0 0 0 0.305 0 0.566-0.22 0.616-0.522 0.192-1.146 1.177-1.978 2.341-1.978s2.149 0.832 2.341 1.978c0.050 0.301 0.311 0.522 0.616 0.522s0.566-0.22 0.616-0.521c0.034-0.201 0.051-0.404 0.051-0.604 0-1.999-1.626-3.625-3.625-3.625s-3.625 1.626-3.625 3.625c0 0.199 0.017 0.402 0.051 0.604 0.051 0.301 0.311 0.521 0.616 0.521zM19.042 12c0 0 0 0 0 0 0.305 0 0.566-0.22 0.616-0.522 0.192-1.146 1.177-1.978 2.341-1.978s2.149 0.832 2.341 1.978c0.050 0.301 0.311 0.522 0.616 0.522s0.566-0.22 0.616-0.521c0.034-0.201 0.051-0.404 0.051-0.604 0-1.999-1.626-3.625-3.625-3.625s-3.625 1.626-3.625 3.625c0 0.199 0.017 0.402 0.051 0.604 0.051 0.301 0.311 0.521 0.617 0.521z"></path>
</symbol>
<symbol id="icon-facebook2" viewBox="0 0 32 32">
<title>facebook2</title>
<path d="M29 0h-26c-1.65 0-3 1.35-3 3v26c0 1.65 1.35 3 3 3h13v-14h-4v-4h4v-2c0-3.306 2.694-6 6-6h4v4h-4c-1.1 0-2 0.9-2 2v2h6l-1 4h-5v14h9c1.65 0 3-1.35 3-3v-26c0-1.65-1.35-3-3-3z"></path>
</symbol>
<symbol id="icon-instagram" viewBox="0 0 32 32">
<title>instagram</title>
<path d="M16 2.881c4.275 0 4.781 0.019 6.462 0.094 1.563 0.069 2.406 0.331 2.969 0.55 0.744 0.288 1.281 0.638 1.837 1.194 0.563 0.563 0.906 1.094 1.2 1.838 0.219 0.563 0.481 1.412 0.55 2.969 0.075 1.688 0.094 2.194 0.094 6.463s-0.019 4.781-0.094 6.463c-0.069 1.563-0.331 2.406-0.55 2.969-0.288 0.744-0.637 1.281-1.194 1.837-0.563 0.563-1.094 0.906-1.837 1.2-0.563 0.219-1.413 0.481-2.969 0.55-1.688 0.075-2.194 0.094-6.463 0.094s-4.781-0.019-6.463-0.094c-1.563-0.069-2.406-0.331-2.969-0.55-0.744-0.288-1.281-0.637-1.838-1.194-0.563-0.563-0.906-1.094-1.2-1.837-0.219-0.563-0.481-1.413-0.55-2.969-0.075-1.688-0.094-2.194-0.094-6.463s0.019-4.781 0.094-6.463c0.069-1.563 0.331-2.406 0.55-2.969 0.288-0.744 0.638-1.281 1.194-1.838 0.563-0.563 1.094-0.906 1.838-1.2 0.563-0.219 1.412-0.481 2.969-0.55 1.681-0.075 2.188-0.094 6.463-0.094zM16 0c-4.344 0-4.887 0.019-6.594 0.094-1.7 0.075-2.869 0.35-3.881 0.744-1.056 0.412-1.95 0.956-2.837 1.85-0.894 0.888-1.438 1.781-1.85 2.831-0.394 1.019-0.669 2.181-0.744 3.881-0.075 1.713-0.094 2.256-0.094 6.6s0.019 4.887 0.094 6.594c0.075 1.7 0.35 2.869 0.744 3.881 0.413 1.056 0.956 1.95 1.85 2.837 0.887 0.887 1.781 1.438 2.831 1.844 1.019 0.394 2.181 0.669 3.881 0.744 1.706 0.075 2.25 0.094 6.594 0.094s4.888-0.019 6.594-0.094c1.7-0.075 2.869-0.35 3.881-0.744 1.050-0.406 1.944-0.956 2.831-1.844s1.438-1.781 1.844-2.831c0.394-1.019 0.669-2.181 0.744-3.881 0.075-1.706 0.094-2.25 0.094-6.594s-0.019-4.887-0.094-6.594c-0.075-1.7-0.35-2.869-0.744-3.881-0.394-1.063-0.938-1.956-1.831-2.844-0.887-0.887-1.781-1.438-2.831-1.844-1.019-0.394-2.181-0.669-3.881-0.744-1.712-0.081-2.256-0.1-6.6-0.1v0z"></path>
<path d="M16 7.781c-4.537 0-8.219 3.681-8.219 8.219s3.681 8.219 8.219 8.219 8.219-3.681 8.219-8.219c0-4.537-3.681-8.219-8.219-8.219zM16 21.331c-2.944 0-5.331-2.387-5.331-5.331s2.387-5.331 5.331-5.331c2.944 0 5.331 2.387 5.331 5.331s-2.387 5.331-5.331 5.331z"></path>
<path d="M26.462 7.456c0 1.060-0.859 1.919-1.919 1.919s-1.919-0.859-1.919-1.919c0-1.060 0.859-1.919 1.919-1.919s1.919 0.859 1.919 1.919z"></path>
</symbol>
<symbol id="icon-whatsapp" viewBox="0 0 32 32">
<title>whatsapp</title>
<path d="M27.281 4.65c-2.994-3-6.975-4.65-11.219-4.65-8.738 0-15.85 7.112-15.85 15.856 0 2.794 0.731 5.525 2.119 7.925l-2.25 8.219 8.406-2.206c2.319 1.262 4.925 1.931 7.575 1.931h0.006c0 0 0 0 0 0 8.738 0 15.856-7.113 15.856-15.856 0-4.238-1.65-8.219-4.644-11.219zM16.069 29.050v0c-2.369 0-4.688-0.637-6.713-1.837l-0.481-0.288-4.987 1.306 1.331-4.863-0.313-0.5c-1.325-2.094-2.019-4.519-2.019-7.012 0-7.269 5.912-13.181 13.188-13.181 3.519 0 6.831 1.375 9.319 3.862 2.488 2.494 3.856 5.8 3.856 9.325-0.006 7.275-5.919 13.188-13.181 13.188zM23.294 19.175c-0.394-0.2-2.344-1.156-2.706-1.288s-0.625-0.2-0.894 0.2c-0.262 0.394-1.025 1.288-1.256 1.556-0.231 0.262-0.462 0.3-0.856 0.1s-1.675-0.619-3.188-1.969c-1.175-1.050-1.975-2.35-2.206-2.744s-0.025-0.613 0.175-0.806c0.181-0.175 0.394-0.463 0.594-0.694s0.262-0.394 0.394-0.662c0.131-0.262 0.069-0.494-0.031-0.694s-0.894-2.15-1.219-2.944c-0.319-0.775-0.65-0.669-0.894-0.681-0.231-0.012-0.494-0.012-0.756-0.012s-0.694 0.1-1.056 0.494c-0.363 0.394-1.387 1.356-1.387 3.306s1.419 3.831 1.619 4.1c0.2 0.262 2.794 4.269 6.769 5.981 0.944 0.406 1.681 0.65 2.256 0.837 0.95 0.3 1.813 0.256 2.494 0.156 0.762-0.113 2.344-0.956 2.675-1.881s0.331-1.719 0.231-1.881c-0.094-0.175-0.356-0.275-0.756-0.475z"></path>
</symbol>
<symbol id="icon-telegram" viewBox="0 0 32 32">
<title>telegram</title>
<path d="M16 0c-8.838 0-16 7.162-16 16s7.162 16 16 16 16-7.163 16-16-7.163-16-16-16zM23.863 10.969l-2.625 12.369c-0.181 0.881-0.712 1.087-1.45 0.681l-4-2.956-1.919 1.869c-0.225 0.219-0.4 0.4-0.8 0.4-0.519 0-0.431-0.194-0.606-0.688l-1.363-4.475-3.956-1.231c-0.856-0.262-0.862-0.85 0.194-1.269l15.412-5.95c0.7-0.319 1.381 0.169 1.113 1.25z"></path>
</symbol>
<symbol id="icon-twitter" viewBox="0 0 32 32">
<title>twitter</title>
<path d="M32 7.075c-1.175 0.525-2.444 0.875-3.769 1.031 1.356-0.813 2.394-2.1 2.887-3.631-1.269 0.75-2.675 1.3-4.169 1.594-1.2-1.275-2.906-2.069-4.794-2.069-3.625 0-6.563 2.938-6.563 6.563 0 0.512 0.056 1.012 0.169 1.494-5.456-0.275-10.294-2.888-13.531-6.862-0.563 0.969-0.887 2.1-0.887 3.3 0 2.275 1.156 4.287 2.919 5.463-1.075-0.031-2.087-0.331-2.975-0.819 0 0.025 0 0.056 0 0.081 0 3.181 2.263 5.838 5.269 6.437-0.55 0.15-1.131 0.231-1.731 0.231-0.425 0-0.831-0.044-1.237-0.119 0.838 2.606 3.263 4.506 6.131 4.563-2.25 1.762-5.075 2.813-8.156 2.813-0.531 0-1.050-0.031-1.569-0.094 2.913 1.869 6.362 2.95 10.069 2.95 12.075 0 18.681-10.006 18.681-18.681 0-0.287-0.006-0.569-0.019-0.85 1.281-0.919 2.394-2.075 3.275-3.394z"></path>
</symbol>
<symbol id="icon-youtube2" viewBox="0 0 80 32">
<title>youtube2</title>
<path d="M10.75 5.294c0.007-0.027 0.011-0.046 0.012-0.056l0.033-0.236-1.48-0.008c-1.337-0.008-1.746 0-1.783 0.034-0.018 0.016-0.479 1.77-1.302 4.946-0.392 1.515-0.723 2.725-0.734 2.689s-0.481-1.766-1.044-3.843c-0.563-2.078-1.034-3.789-1.048-3.803-0.019-0.019-1.812-0.028-3.263-0.016-0.21 0.002-0.327-0.41 1.876 6.598 0.305 0.97 0.762 2.344 1.015 3.052 0.292 0.817 0.5 1.448 0.642 1.974 0.251 1.002 0.26 1.63 0.205 2.363-0.063 0.847-0.073 6.826-0.011 6.926 0.047 0.077 2.851 0.112 3.116 0.040 0.042-0.012 0.071-0.053 0.090-0.279 0.066-0.194 0.071-0.968 0.071-4.18v-4.103l0.179-0.566c0.117-0.37 0.413-1.344 0.656-2.163s0.538-1.801 0.654-2.18c1.057-3.447 2.067-6.838 2.094-7.032l0.022-0.158z"></path>
<path d="M26.441 10.27l-0.001 0.214-0.033 0-0.019 5.906-0.018 5.726-0.458 0.467c-0.513 0.522-0.925 0.722-1.297 0.629-0.405-0.102-0.395 0.056-0.429-6.712l-0.031-6.23h-2.947v0.214h-0.034v6.759c0 7.242-0 7.237 0.367 7.965 0.293 0.579 0.719 0.861 1.45 0.958h0c0.962 0.128 2-0.308 2.962-1.244l0.418-0.407v0.701c0 0.606 0.017 0.706 0.127 0.737 0.18 0.050 2.412 0.053 2.653 0.004l0.2-0.041v-0.207l0.034-0.007v-15.472l-2.944 0.039z"></path>
<path d="M18.965 13.323c-0.279-1.198-0.802-2.004-1.664-2.561-1.353-0.875-2.897-0.967-4.331-0.259-1.045 0.516-1.717 1.372-2.065 2.628-0.041 0.15-0.072 0.275-0.095 0.463-0.088 0.443-0.099 1.105-0.122 4.186-0.035 4.748 0.019 5.313 0.614 6.391 0.583 1.058 1.794 1.833 3.112 1.993 0.397 0.048 1.201-0.027 1.663-0.155 1.051-0.291 2.058-1.122 2.504-2.065 0.192-0.407 0.309-0.691 0.379-1.208 0.13-0.707 0.14-1.849 0.14-4.762-0-3.715-0.012-4.121-0.136-4.651zM15.604 23c-0.247 0.188-0.679 0.27-1.031 0.195-0.271-0.058-0.636-0.482-0.748-0.869-0.14-0.482-0.151-7.187-0.030-8.502 0.199-0.658 0.756-1.002 1.364-0.838 0.474 0.128 0.716 0.424 0.854 1.046 0.103 0.461 0.115 1.035 0.093 4.414-0.014 2.241-0.022 3.336-0.096 3.924-0.074 0.371-0.197 0.47-0.407 0.63z"></path>
<path d="M71.887 16.692h1.424l-0.023-1.29c-0.022-1.183-0.039-1.319-0.198-1.64-0.249-0.507-0.617-0.731-1.201-0.731-0.701 0-1.146 0.339-1.356 1.036-0.089 0.296-0.183 2.334-0.116 2.51 0.038 0.098 0.241 0.116 1.469 0.116z"></path>
<path d="M62.369 13.757c-0.19-0.383-0.543-0.571-0.954-0.556-0.319 0.011-0.674 0.146-1.015 0.407l-0.254 0.193v9.269l0.254 0.193c0.576 0.439 1.209 0.532 1.644 0.241 0.172-0.115 0.285-0.274 0.372-0.527 0.114-0.329 0.124-0.75 0.109-4.649-0.015-4.064-0.024-4.303-0.157-4.57z"></path>
<path d="M80.027 9.582c-0.284-3.401-0.509-4.505-1.211-5.923-0.929-1.878-2.272-2.868-4.184-3.086-1.478-0.168-7.041-0.405-12.189-0.52-8.912-0.198-23.564 0.183-25.436 0.662-0.865 0.221-1.513 0.597-2.188 1.269-1.183 1.177-1.887 2.865-2.17 5.2-0.647 5.331-0.66 11.773-0.037 17.297 0.268 2.376 0.82 3.92 1.857 5.192 0.647 0.794 1.761 1.469 2.758 1.67 0.7 0.141 4.201 0.337 9.3 0.521 0.76 0.027 2.771 0.074 4.47 0.105 3.541 0.063 10.051 0.026 13.772-0.079 2.504-0.070 7.069-0.255 7.922-0.321 0.24-0.019 0.796-0.054 1.236-0.079 1.477-0.083 2.417-0.393 3.3-1.086 1.142-0.897 2.027-2.556 2.4-4.501 0.354-1.84 0.59-5.118 0.638-8.839 0.040-3.109-0.013-4.787-0.238-7.482zM44.54 8.35l-1.656 0.020-0.073 17.661-1.435 0.018c-1.11 0.015-1.447-0.001-1.474-0.073-0.019-0.051-0.042-4.032-0.052-8.849l-0.018-8.758-3.234-0.041v-2.76l9.557 0.039 0.041 2.721-1.656 0.020zM54.694 18.472v7.595h-2.616v-0.799c0-0.601-0.023-0.799-0.093-0.799-0.051 0-0.288 0.198-0.527 0.441-0.517 0.526-1.13 0.949-1.653 1.145-1.083 0.405-2.112 0.169-2.551-0.586-0.401-0.691-0.409-0.845-0.409-8.010v-6.58h2.614l0.020 6.196c0.019 6.088 0.022 6.2 0.168 6.448 0.193 0.329 0.488 0.417 0.956 0.288 0.276-0.076 0.464-0.21 0.911-0.654l0.563-0.561v-11.717h2.616v7.595zM64.899 24.982c-0.23 0.513-0.744 1.016-1.165 1.14-1.099 0.324-1.98 0.060-2.998-0.897-0.316-0.297-0.61-0.538-0.654-0.538-0.053 0-0.082 0.233-0.082 0.69v0.69h-2.616v-20.495h2.616v3.343c0 1.839 0.025 3.343 0.054 3.343s0.306-0.244 0.613-0.541c0.707-0.683 1.298-0.981 2.049-1.038 1.338-0.101 2.135 0.587 2.501 2.16 0.114 0.491 0.125 1.051 0.125 5.596-0 5.537-0.001 5.56-0.443 6.546zM75.968 21.943c-0.023 0.57-0.092 1.223-0.154 1.454-0.364 1.349-1.332 2.304-2.732 2.696-1.885 0.527-3.96-0.337-4.788-1.994-0.465-0.93-0.481-1.116-0.481-5.662 0-3.707 0.013-4.162 0.132-4.667 0.336-1.431 1.168-2.357 2.578-2.871 0.408-0.149 0.835-0.225 1.261-0.234 1.521-0.031 3.031 0.787 3.663 2.119 0.427 0.899 0.48 1.283 0.522 3.816l0.039 2.271-5.578 0.039-0.020 1.526c-0.029 2.153 0.116 2.815 0.697 3.207 0.489 0.329 1.24 0.305 1.649-0.055 0.383-0.337 0.491-0.698 0.529-1.753l0.034-0.927h2.694l-0.043 1.036z"></path>
</symbol>
<symbol id="icon-github" viewBox="0 0 32 32">
<title>github</title>
<path d="M16 0.395c-8.836 0-16 7.163-16 16 0 7.069 4.585 13.067 10.942 15.182 0.8 0.148 1.094-0.347 1.094-0.77 0-0.381-0.015-1.642-0.022-2.979-4.452 0.968-5.391-1.888-5.391-1.888-0.728-1.849-1.776-2.341-1.776-2.341-1.452-0.993 0.11-0.973 0.11-0.973 1.606 0.113 2.452 1.649 2.452 1.649 1.427 2.446 3.743 1.739 4.656 1.33 0.143-1.034 0.558-1.74 1.016-2.14-3.554-0.404-7.29-1.777-7.29-7.907 0-1.747 0.625-3.174 1.649-4.295-0.166-0.403-0.714-2.030 0.155-4.234 0 0 1.344-0.43 4.401 1.64 1.276-0.355 2.645-0.532 4.005-0.539 1.359 0.006 2.729 0.184 4.008 0.539 3.054-2.070 4.395-1.64 4.395-1.64 0.871 2.204 0.323 3.831 0.157 4.234 1.026 1.12 1.647 2.548 1.647 4.295 0 6.145-3.743 7.498-7.306 7.895 0.574 0.497 1.085 1.47 1.085 2.963 0 2.141-0.019 3.864-0.019 4.391 0 0.426 0.288 0.925 1.099 0.768 6.354-2.118 10.933-8.113 10.933-15.18 0-8.837-7.164-16-16-16z"></path>
</symbol>
<symbol id="icon-appleinc" viewBox="0 0 32 32">
<title>appleinc</title>
<path d="M24.734 17.003c-0.040-4.053 3.305-5.996 3.454-6.093-1.88-2.751-4.808-3.127-5.851-3.171-2.492-0.252-4.862 1.467-6.127 1.467-1.261 0-3.213-1.43-5.28-1.392-2.716 0.040-5.221 1.579-6.619 4.012-2.822 4.897-0.723 12.151 2.028 16.123 1.344 1.944 2.947 4.127 5.051 4.049 2.026-0.081 2.793-1.311 5.242-1.311s3.138 1.311 5.283 1.271c2.18-0.041 3.562-1.981 4.897-3.931 1.543-2.255 2.179-4.439 2.216-4.551-0.048-0.022-4.252-1.632-4.294-6.473zM20.705 5.11c1.117-1.355 1.871-3.235 1.665-5.11-1.609 0.066-3.559 1.072-4.713 2.423-1.036 1.199-1.942 3.113-1.699 4.951 1.796 0.14 3.629-0.913 4.747-2.264z"></path>
</symbol>
<symbol id="icon-android" viewBox="0 0 32 32">
<title>android</title>
<path d="M28 12c-1.1 0-2 0.9-2 2v8c0 1.1 0.9 2 2 2s2-0.9 2-2v-8c0-1.1-0.9-2-2-2zM4 12c-1.1 0-2 0.9-2 2v8c0 1.1 0.9 2 2 2s2-0.9 2-2v-8c0-1.1-0.9-2-2-2zM7 23c0 1.657 1.343 3 3 3v0 4c0 1.1 0.9 2 2 2s2-0.9 2-2v-4h4v4c0 1.1 0.9 2 2 2s2-0.9 2-2v-4c1.657 0 3-1.343 3-3v-11h-18v11z"></path>
<path d="M24.944 10c-0.304-2.746-1.844-5.119-4.051-6.551l1.001-2.001c0.247-0.494 0.047-1.095-0.447-1.342s-1.095-0.047-1.342 0.447l-1.004 2.009-0.261-0.104c-0.893-0.297-1.848-0.458-2.84-0.458s-1.947 0.161-2.84 0.458l-0.261 0.104-1.004-2.009c-0.247-0.494-0.848-0.694-1.342-0.447s-0.694 0.848-0.447 1.342l1.001 2.001c-2.207 1.433-3.747 3.805-4.051 6.551v1h17.944v-1h-0.056zM13 8c-0.552 0-1-0.448-1-1s0.447-0.999 0.998-1c0.001 0 0.002 0 0.003 0s0.001-0 0.002-0c0.551 0.001 0.998 0.448 0.998 1s-0.448 1-1 1zM19 8c-0.552 0-1-0.448-1-1s0.446-0.999 0.998-1c0 0 0.001 0 0.002 0s0.002-0 0.003-0c0.551 0.001 0.998 0.448 0.998 1s-0.448 1-1 1z"></path>
</symbol>
<symbol id="icon-chrome" viewBox="0 0 32 32">
<title>chrome</title>
<path d="M8.071 13.954l-4.579-7.931c2.932-3.671 7.445-6.023 12.508-6.023 5.857 0 10.978 3.148 13.767 7.844h-13.055c-0.235-0.020-0.472-0.031-0.711-0.031-3.809 0-7.018 2.614-7.929 6.142zM21.728 10.156h9.171c0.711 1.81 1.101 3.781 1.101 5.844 0 8.776-7.066 15.9-15.818 15.998l6.544-11.334c0.921-1.324 1.462-2.932 1.462-4.664 0-2.287-0.943-4.357-2.459-5.844zM10.188 16c0-3.205 2.607-5.813 5.813-5.813s5.813 2.607 5.813 5.813c0 3.205-2.608 5.813-5.813 5.813s-5.813-2.608-5.813-5.813zM18.193 23.889l-4.581 7.934c-7.704-1.153-13.613-7.797-13.613-15.822 0-2.851 0.746-5.526 2.053-7.845l6.532 11.314c1.308 2.785 4.14 4.718 7.415 4.718 0.759 0 1.495-0.104 2.193-0.299z"></path>
</symbol>
<symbol id="icon-firefox" viewBox="0 0 32 32">
<title>firefox</title>
<path d="M31.954 10.442l-0.371 2.377c0 0-0.53-4.402-1.179-6.047-0.995-2.521-1.438-2.501-1.441-2.498 0.667 1.694 0.546 2.604 0.546 2.604s-1.181-3.219-4.303-4.243c-3.459-1.134-5.33-0.824-5.547-0.765-0.033-0-0.064-0-0.095-0 0.026 0.002 0.050 0.005 0.076 0.007-0.001 0.001-0.003 0.001-0.003 0.002 0.014 0.017 3.822 0.666 4.497 1.594 0 0-1.617 0-3.227 0.464-0.073 0.021 5.923 0.749 7.148 6.74 0 0-0.657-1.371-1.47-1.604 0.535 1.626 0.397 4.712-0.112 6.245-0.066 0.197-0.133-0.853-1.135-1.305 0.321 2.301-0.019 5.952-1.616 6.957-0.124 0.078 1.001-3.603 0.226-2.18-4.46 6.838-9.731 3.155-12.101 1.535 1.215 0.264 3.52-0.041 4.541-0.8 0.001-0.001 0.002-0.002 0.004-0.003 1.108-0.758 1.765-1.311 2.354-1.18s0.982-0.46 0.524-0.985c-0.459-0.526-1.572-1.249-3.079-0.855-1.063 0.278-2.379 1.454-4.389 0.264-1.543-0.914-1.688-1.673-1.702-2.199 0.038-0.186 0.086-0.361 0.143-0.52 0.178-0.496 0.716-0.646 1.015-0.764 0.508 0.087 0.946 0.246 1.405 0.481 0.006-0.153 0.008-0.356-0.001-0.586 0.044-0.088 0.017-0.352-0.054-0.674-0.041-0.322-0.107-0.655-0.211-0.959 0-0 0.001-0 0.001-0 0.002-0.001 0.003-0.001 0.005-0.002s0.005-0.004 0.007-0.006c0-0.001 0.001-0.001 0.001-0.002 0.003-0.004 0.005-0.008 0.006-0.015 0.032-0.144 0.376-0.423 0.804-0.722 0.383-0.268 0.834-0.553 1.19-0.774 0.314-0.195 0.554-0.34 0.605-0.378 0.019-0.015 0.042-0.032 0.068-0.051 0.005-0.004 0.009-0.007 0.014-0.011 0.003-0.002 0.006-0.005 0.009-0.007 0.169-0.135 0.421-0.389 0.474-0.924 0-0.001 0-0.002 0-0.004 0.002-0.016 0.003-0.032 0.004-0.048 0.001-0.011 0.002-0.023 0.002-0.034 0-0.009 0.001-0.018 0.001-0.027 0.001-0.021 0.002-0.043 0.002-0.065 0-0.001 0-0.002 0-0.004 0.001-0.052-0-0.106-0.003-0.163-0.002-0.032-0.004-0.060-0.009-0.086-0-0.001-0.001-0.003-0.001-0.004-0.001-0.003-0.001-0.005-0.002-0.008-0.001-0.005-0.002-0.009-0.004-0.013-0-0.001-0-0.001-0.001-0.001-0.002-0.005-0.004-0.010-0.005-0.014-0-0-0-0-0-0.001-0.055-0.128-0.26-0.177-1.108-0.191-0.001-0-0.002-0-0.002-0v0c-0.346-0.006-0.798-0.006-1.391-0.004-1.039 0.004-1.613-1.016-1.797-1.41 0.251-1.389 0.977-2.379 2.17-3.051 0.023-0.013 0.018-0.023-0.009-0.031 0.233-0.141-2.82-0.004-4.225 1.782-1.247-0.31-2.333-0.289-3.269-0.069-0.18-0.005-0.404-0.027-0.67-0.083-0.623-0.564-1.514-1.606-1.562-2.85 0 0-0.003 0.002-0.008 0.006-0.001-0.012-0.002-0.024-0.002-0.036 0 0-1.897 1.458-1.613 5.434-0.001 0.064-0.002 0.125-0.004 0.184-0.514 0.696-0.768 1.282-0.787 1.411-0.455 0.926-0.917 2.32-1.292 4.437 0 0 0.263-0.833 0.79-1.777-0.388 1.188-0.693 3.036-0.514 5.808 0 0 0.047-0.615 0.215-1.5 0.131 1.719 0.704 3.841 2.152 6.337 2.78 4.791 7.052 7.211 11.775 7.582 0.839 0.069 1.689 0.071 2.544 0.006 0.079-0.006 0.157-0.011 0.236-0.018 0.968-0.068 1.942-0.214 2.914-0.449 13.287-3.212 11.842-19.256 11.842-19.256z"></path>
</symbol>
<symbol id="icon-edge" viewBox="0 0 32 32">
<title>edge</title>
<path d="M0.481 14.206c0.938-7.4 5.987-14.113 15.037-14.206 5.463 0.106 9.956 2.581 12.631 7.3 1.344 2.462 1.762 5.050 1.85 7.906v3.356h-20.081c0.094 8.281 12.188 8 17.394 4.35v6.744c-3.050 1.831-9.969 3.469-15.325 1.363-4.563-1.712-7.813-6.488-7.794-11.081-0.15-5.956 2.962-9.9 7.794-12.144-1.025 1.269-1.806 2.669-2.213 5.094h11.338c0 0 0.663-6.775-6.419-6.775-6.675 0.231-11.488 4.112-14.213 8.094v0z"></path>
</symbol>
<symbol id="icon-safari" viewBox="0 0 32 32">
<title>safari</title>
<path d="M16 0c-8.838 0-16 7.162-16 16s7.162 16 16 16 16-7.163 16-16-7.163-16-16-16zM29.95 14.775l-0.031-0.331c0.006 0.113 0.019 0.219 0.031 0.331zM27.762 8.4l-0.225-0.338c0.075 0.113 0.15 0.225 0.225 0.338zM26.894 7.206l-0.137-0.169c0.050 0.056 0.094 0.112 0.137 0.169zM24.956 5.237l-0.169-0.138c0.063 0.050 0.113 0.094 0.169 0.138zM23.938 4.463l-0.337-0.225c0.113 0.075 0.225 0.15 0.337 0.225zM17.556 2.087l-0.337-0.031c0.113 0.006 0.225 0.019 0.337 0.031zM14.775 2.050l-0.338 0.031c0.113-0.006 0.225-0.019 0.338-0.031zM8.4 4.237l-0.338 0.225c0.113-0.075 0.225-0.15 0.338-0.225zM7.206 5.106l-0.162 0.131c0.056-0.044 0.106-0.088 0.162-0.131zM5.237 7.044l-0.138 0.169c0.050-0.056 0.094-0.112 0.138-0.169zM4.463 8.063l-0.225 0.338c0.075-0.113 0.15-0.225 0.225-0.338zM2.087 14.444l-0.031 0.338c0.006-0.113 0.019-0.225 0.031-0.338zM2.050 17.225l0.031 0.337c-0.006-0.113-0.019-0.225-0.031-0.337zM4.237 23.594l0.225 0.337c-0.075-0.106-0.15-0.219-0.225-0.337zM4.5 23.988l2.494-1.669-0.275-0.419-2.494 1.669c-1.131-1.756-1.875-3.775-2.125-5.95l1.494-0.15-0.050-0.5-1.494 0.15c-0.025-0.288-0.038-0.581-0.044-0.875h3v-0.5h-3c0.006-0.294 0.019-0.581 0.044-0.875l1.494 0.144 0.050-0.5-1.494-0.144c0.25-2.175 1-4.194 2.131-5.95l2.494 1.669 0.275-0.419-2.5-1.656c0.169-0.237 0.338-0.475 0.519-0.7l1.156 0.95 0.319-0.388-1.156-0.95c0.188-0.225 0.388-0.438 0.588-0.65l2.119 2.119 0.356-0.356-2.119-2.119c0.213-0.2 0.425-0.4 0.644-0.588l0.95 1.162 0.387-0.319-0.95-1.156c0.231-0.181 0.463-0.356 0.7-0.525l1.669 2.494 0.419-0.275-1.669-2.494c1.756-1.131 3.775-1.875 5.95-2.125l0.15 1.494 0.5-0.050-0.15-1.494c0.287-0.025 0.581-0.038 0.875-0.044v3h0.5v-3c0.294 0.006 0.581 0.019 0.875 0.044l-0.144 1.494 0.5 0.050 0.144-1.494c2.175 0.25 4.194 1 5.95 2.131l-1.669 2.494 0.419 0.275 1.669-2.494c0.238 0.169 0.475 0.338 0.7 0.519l-0.95 1.156 0.387 0.319 0.95-1.156c0.225 0.188 0.438 0.388 0.65 0.588l-0.8 0.781-10.938 7.294-7.294 10.937-0.781 0.781c-0.2-0.212-0.4-0.425-0.588-0.644l1.156-0.95-0.319-0.387-1.156 0.95c-0.181-0.225-0.35-0.462-0.519-0.7zM5.237 24.956c-0.044-0.056-0.088-0.106-0.131-0.163l0.131 0.163zM7.044 26.762l0.162 0.131c-0.056-0.044-0.106-0.087-0.162-0.131zM8.063 27.531l0.338 0.225c-0.113-0.069-0.225-0.144-0.338-0.225zM14.444 29.913l0.338 0.031c-0.113-0.006-0.225-0.019-0.338-0.031zM17.225 29.95l0.331-0.031c-0.113 0.006-0.219 0.019-0.331 0.031zM23.6 27.762l0.337-0.225c-0.113 0.075-0.225 0.15-0.337 0.225zM24.794 26.894l0.169-0.137c-0.056 0.050-0.113 0.094-0.169 0.137zM25.887 25.913l0.025-0.025c-0.006 0.006-0.019 0.019-0.025 0.025zM26.762 24.956l0.137-0.169c-0.050 0.056-0.094 0.113-0.137 0.169zM26.981 24.688l-1.156-0.95-0.319 0.387 1.156 0.95c-0.188 0.225-0.387 0.438-0.587 0.65l-2.119-2.119-0.356 0.356 2.119 2.119c-0.212 0.2-0.425 0.4-0.644 0.587l-0.95-1.163-0.387 0.319 0.95 1.156c-0.231 0.181-0.462 0.356-0.7 0.525l-1.669-2.494-0.419 0.275 1.669 2.494c-1.756 1.131-3.775 1.875-5.95 2.125l-0.15-1.494-0.5 0.050 0.15 1.494c-0.288 0.025-0.581 0.038-0.875 0.044v-3h-0.5v3c-0.294-0.006-0.581-0.019-0.875-0.044l0.144-1.494-0.5-0.050-0.144 1.494c-2.175-0.25-4.194-1-5.95-2.131l1.669-2.494-0.419-0.275-1.656 2.494c-0.237-0.169-0.475-0.337-0.7-0.519l0.95-1.156-0.388-0.319-0.95 1.156c-0.225-0.188-0.438-0.387-0.65-0.587l0.787-0.781 10.937-7.294 7.294-10.938 0.781-0.781c0.2 0.213 0.4 0.425 0.587 0.644l-1.156 0.95 0.319 0.387 1.156-0.95c0.181 0.231 0.356 0.463 0.525 0.7l-2.494 1.669 0.275 0.419 2.494-1.669c1.131 1.756 1.875 3.775 2.125 5.95l-1.494 0.15 0.050 0.5 1.494-0.15c0.025 0.287 0.038 0.581 0.044 0.875h-3v0.5h3c-0.006 0.294-0.019 0.581-0.044 0.875l-1.494-0.144-0.050 0.5 1.494 0.144c-0.25 2.175-1 4.194-2.131 5.95l-2.494-1.669-0.275 0.419 2.494 1.669c-0.163 0.225-0.337 0.456-0.519 0.688zM29.95 17.219c-0.012 0.113-0.019 0.225-0.031 0.337l0.031-0.337zM27.762 23.6c-0.075 0.113-0.15 0.225-0.225 0.337l0.225-0.337z"></path>
<path d="M13.517 2.221l0.585 2.942-0.49 0.098-0.585-2.942 0.49-0.098z"></path>
<path d="M18.489 29.78l-0.585-2.942 0.49-0.098 0.585 2.942-0.49 0.098z"></path>
<path d="M12.176 2.528l0.436 1.435-0.478 0.145-0.436-1.435 0.478-0.145z"></path>
<path d="M19.826 29.465l-0.436-1.435 0.478-0.145 0.436 1.435-0.478 0.145z"></path>
<path d="M10.875 2.972l1.148 2.772-0.462 0.191-1.148-2.772 0.462-0.191z"></path>
<path d="M21.129 29.030l-1.148-2.772 0.462-0.191 1.148 2.772-0.462 0.191z"></path>
<path d="M9.176 3.771l0.441-0.236 0.707 1.323-0.441 0.236-0.707-1.323z"></path>
<path d="M22.816 28.228l-0.441 0.236-0.707-1.323 0.441-0.236 0.707 1.323z"></path>
<path d="M3.769 9.182l1.323 0.707-0.236 0.441-1.323-0.707 0.236-0.441z"></path>
<path d="M28.226 22.819l-1.323-0.707 0.236-0.441 1.323 0.707-0.236 0.441z"></path>
<path d="M5.744 12.019l-2.772-1.148 0.191-0.462 2.772 1.148-0.191 0.462z"></path>
<path d="M26.26 19.978l2.772 1.148-0.191 0.462-2.772-1.148 0.191-0.462z"></path>
<path d="M2.673 11.7l1.436 0.435-0.145 0.479-1.436-0.435 0.145-0.479z"></path>
<path d="M29.322 20.302l-1.436-0.435 0.145-0.479 1.436 0.435-0.145 0.479z"></path>
<path d="M2.315 13.024l2.942 0.585-0.098 0.49-2.942-0.585 0.098-0.49z"></path>
<path d="M29.679 18.976l-2.942-0.585 0.098-0.49 2.942 0.585-0.098 0.49z"></path>
<path d="M2.218 18.486l2.942-0.585 0.098 0.49-2.942 0.585-0.098-0.49z"></path>
<path d="M29.776 13.513l-2.942 0.585-0.098-0.49 2.942-0.585 0.098 0.49z"></path>
<path d="M2.53 19.829l1.435-0.436 0.145 0.478-1.435 0.436-0.145-0.478z"></path>
<path d="M29.468 12.178l-1.435 0.436-0.145-0.478 1.435-0.436 0.145 0.478z"></path>
<path d="M3.161 21.591l-0.191-0.462 2.772-1.148 0.191 0.462-2.772 1.148z"></path>
<path d="M28.837 10.413l0.191 0.462-2.772 1.148-0.191-0.462 2.772-1.148z"></path>
<path d="M3.776 22.821l-0.236-0.441 1.323-0.707 0.236 0.441-1.323 0.707z"></path>
<path d="M28.233 9.181l0.236 0.441-1.323 0.707-0.236-0.441 1.323-0.707z"></path>
<path d="M9.621 28.464l-0.441-0.236 0.707-1.323 0.441 0.236-0.707 1.323z"></path>
<path d="M22.377 3.534l0.441 0.236-0.707 1.323-0.441-0.236 0.707-1.323z"></path>
<path d="M10.415 28.837l1.148-2.772 0.462 0.191-1.148 2.772-0.462-0.191z"></path>
<path d="M21.59 3.16l-1.148 2.772-0.462-0.191 1.148-2.772 0.462 0.191z"></path>
<path d="M12.176 29.47l-0.478-0.145 0.435-1.435 0.478 0.145-0.435 1.435z"></path>
<path d="M19.823 2.528l0.479 0.145-0.435 1.436-0.479-0.145 0.435-1.436z"></path>
<path d="M13.515 29.776l-0.49-0.098 0.585-2.942 0.49 0.098-0.585 2.942z"></path>
<path d="M18.485 2.218l0.49 0.098-0.585 2.942-0.49-0.098 0.585-2.942z"></path>
</symbol>
<symbol id="icon-opera" viewBox="0 0 32 32">
<title>opera</title>
<path d="M32 16v0 0c0 4.738-2.063 9-5.337 11.925-4.106 2-7.931 0.6-9.194-0.275 4.031-0.881 7.075-5.756 7.075-11.65s-3.044-10.769-7.075-11.656c1.269-0.875 5.094-2.275 9.194-0.275 3.275 2.931 5.337 7.194 5.337 11.931v0 0z"></path>
<path d="M10.731 6.981c-1.769 2.087-2.912 5.175-2.987 8.644 0 0.006 0 0.744 0 0.756 0.075 3.462 1.225 6.55 2.994 8.637 2.294 2.981 5.706 4.869 9.519 4.869 2.344 0 4.538-0.712 6.413-1.956-2.837 2.531-6.575 4.069-10.669 4.069-0.256 0-0.512-0.006-0.762-0.019-8.481-0.4-15.238-7.4-15.238-15.981 0-8.838 7.162-16 16-16 0.019 0 0.038 0 0.063 0 4.075 0.013 7.787 1.55 10.606 4.075-1.875-1.244-4.069-1.962-6.413-1.962-3.813 0-7.225 1.887-9.525 4.869z"></path>
</symbol>
</defs>
</svg>
